HIERARCHY
ROOT Hips
{
	OFFSET 0.000000 89.005402 0.000000
	CHANNELS 6 Xposition Yposition Zposition Xrotation Yrotation Zrotation
	JOINT Spine
	{
		OFFSET 0.116900 10.681000 0.373400
		CHANNELS 3 Xrotation Yrotation Zrotation
		JOINT Spine1
		{
			OFFSET 0.000000 13.840401 0.053500
			CHANNELS 3 Xrotation Yrotation Zrotation
			JOINT Spine2
			{
				OFFSET 0.000000 14.712700 -0.366200
				CHANNELS 3 Xrotation Yrotation Zrotation
				JOINT Neck
				{
					OFFSET 0.000000 35.415497 -3.314200
					CHANNELS 3 Xrotation Yrotation Zrotation
					JOINT Head
					{
						OFFSET 0.000000 16.899200 1.218300
						CHANNELS 3 Xrotation Yrotation Zrotation
						JOINT HeadTop_End
						{
							OFFSET 0.000000 22.206207 2.192500
							CHANNELS 3 Xrotation Yrotation Zrotation
							End Site
							{
								OFFSET 0.000000 22.314178 0.000000
							}
						}
					}
				}
				JOINT LeftShoulder
				{
					OFFSET 12.896400 26.716293 -4.548400
					CHANNELS 3 Xrotation Yrotation Zrotation
					JOINT LeftArm
					{
						OFFSET 19.027000 -4.857010 -1.718400
						CHANNELS 3 Xrotation Yrotation Zrotation
						JOINT LeftForeArm
						{
							OFFSET 24.179897 0.000000 0.000000
							CHANNELS 3 Xrotation Yrotation Zrotation
							JOINT LeftHand
							{
								OFFSET 27.156403 0.000000 0.000000
								CHANNELS 3 Xrotation Yrotation Zrotation
								JOINT LeftHandIndex1
								{
									OFFSET 16.441200 0.000000 0.000000
									CHANNELS 3 Xrotation Yrotation Zrotation
									JOINT LeftHandIndex2
									{
										OFFSET 4.821899 0.000000 0.000000
										CHANNELS 3 Xrotation Yrotation Zrotation
										JOINT LeftHandIndex3
										{
											OFFSET 6.386497 0.000000 0.000000
											CHANNELS 3 Xrotation Yrotation Zrotation
											JOINT LeftHandIndex4
											{
												OFFSET 5.188988 0.000000 0.000000
												CHANNELS 3 Xrotation Yrotation Zrotation
												End Site
												{
													OFFSET -0.178703 5.185913 0.000177
												}
											}
										}
									}
								}
								JOINT LeftHandThumb1
								{
									OFFSET 6.534897 -5.032593 5.900300
									CHANNELS 3 Xrotation Yrotation Zrotation
									JOINT LeftHandThumb2
									{
										OFFSET 3.818176 -2.204422 2.204423
										CHANNELS 3 Xrotation Yrotation Zrotation
										JOINT LeftHandThumb3
										{
											OFFSET 3.252098 -1.877594 1.877601
											CHANNELS 3 Xrotation Yrotation Zrotation
											JOINT LeftHandThumb4
											{
												OFFSET 5.251778 -3.032120 3.032117
												CHANNELS 3 Xrotation Yrotation Zrotation
												End Site
												{
													OFFSET 0.000023 6.780014 0.000000
												}
											}
										}
									}
								}
							}
						}
					}
				}
				JOINT RightShoulder
				{
					OFFSET -12.896300 26.716293 -4.548400
					CHANNELS 3 Xrotation Yrotation Zrotation
					JOINT RightArm
					{
						OFFSET -19.027000 -4.857010 -1.718400
						CHANNELS 3 Xrotation Yrotation Zrotation
						JOINT RightForeArm
						{
							OFFSET -24.179897 0.000000 0.000000
							CHANNELS 3 Xrotation Yrotation Zrotation
							JOINT RightHand
							{
								OFFSET -27.156403 0.000000 0.000000
								CHANNELS 3 Xrotation Yrotation Zrotation
								JOINT RightHandThumb1
								{
									OFFSET -6.591202 -4.852203 5.988100
									CHANNELS 3 Xrotation Yrotation Zrotation
									JOINT RightHandThumb2
									{
										OFFSET -3.818176 -2.204422 2.204423
										CHANNELS 3 Xrotation Yrotation Zrotation
										JOINT RightHandThumb3
										{
											OFFSET -3.252098 -1.877594 1.877601
											CHANNELS 3 Xrotation Yrotation Zrotation
											JOINT RightHandThumb4
											{
												OFFSET -5.251778 -3.032120 3.032117
												CHANNELS 3 Xrotation Yrotation Zrotation
												End Site
												{
													OFFSET -0.000023 6.780014 0.000000
												}
											}
										}
									}
								}
								JOINT RightHandIndex1
								{
									OFFSET -16.029404 0.000000 0.000000
									CHANNELS 3 Xrotation Yrotation Zrotation
									JOINT RightHandIndex2
									{
										OFFSET -5.213303 0.000000 0.000000
										CHANNELS 3 Xrotation Yrotation Zrotation
										JOINT RightHandIndex3
										{
											OFFSET -6.386528 0.000000 0.000000
											CHANNELS 3 Xrotation Yrotation Zrotation
											JOINT RightHandIndex4
											{
												OFFSET -5.189026 0.000000 0.000000
												CHANNELS 3 Xrotation Yrotation Zrotation
												End Site
												{
													OFFSET 0.236702 5.183624 0.001972
												}
											}
										}
									}
								}
							}
						}
					}
				}
			}
		}
	}
	JOINT LeftUpLeg
	{
		OFFSET 14.073000 -7.904099 -1.463000
		CHANNELS 3 Xrotation Yrotation Zrotation
		JOINT LeftLeg
		{
			OFFSET -0.109806 -34.073280 4.093200
			CHANNELS 3 Xrotation Yrotation Zrotation
			JOINT LeftFoot
			{
				OFFSET 0.109806 -29.899420 -6.319000
				CHANNELS 3 Xrotation Yrotation Zrotation
				JOINT LeftToeBase
				{
					OFFSET 1.551100 -14.988700 20.535801
					CHANNELS 3 Xrotation Yrotation Zrotation
					JOINT LeftToe_End
					{
						OFFSET 0.221200 0.570800 13.248301
						CHANNELS 3 Xrotation Yrotation Zrotation
						End Site
						{
							OFFSET 0.000000 13.262435 0.000000
						}
					}
				}
			}
		}
	}
	JOINT RightUpLeg
	{
		OFFSET -13.839300 -7.904099 -1.463000
		CHANNELS 3 Xrotation Yrotation Zrotation
		JOINT RightLeg
		{
			OFFSET 0.109694 -34.073219 4.093300
			CHANNELS 3 Xrotation Yrotation Zrotation
			JOINT RightFoot
			{
				OFFSET -0.109694 -29.899384 -6.319200
				CHANNELS 3 Xrotation Yrotation Zrotation
				JOINT RightToeBase
				{
					OFFSET -1.551100 -14.988700 20.535801
					CHANNELS 3 Xrotation Yrotation Zrotation
					JOINT RightToe_End
					{
						OFFSET -0.221200 0.570900 13.248299
						CHANNELS 3 Xrotation Yrotation Zrotation
						End Site
						{
							OFFSET 0.000000 13.262440 0.000000
						}
					}
				}
			}
		}
	}
}
MOTION
Frames: 5
Frame Time: 0.033333
11.213715 80.061668 -19.223511 10.210294 -16.349772 3.483887 10.531877 1.942268 2.061442 5.252831 4.915860 -4.514586 -5.612814 6.286666 -2.217276 14.222684 33.228020 -10.655504 0.850472 35.765756 -11.411091 -0.000000 -0.000002 0.000000 0.173803 16.660838 -13.207731 1.883310 -0.712783 -40.963219 -31.948210 -49.222004 -39.528982 24.371064 -10.942056 -1.952594 -0.803506 -0.958808 -9.812726 0.120586 -0.273203 -6.525823 -3.257310 -1.174315 -8.994267 -0.000001 0.000002 -0.000000 18.340386 -6.956297 10.620821 -1.801885 10.290776 -8.010338 6.828901 10.476617 -0.940036 0.000000 -0.000000 0.000000 -5.032761 24.367873 1.129946 6.028622 -35.101633 57.676501 -20.888233 46.194830 20.849639 14.158209 16.922263 -0.490629 55.149533 18.649584 -29.698284 -0.442579 -14.180541 7.313140 21.667018 -29.244514 9.142391 0.000001 0.000000 0.000001 5.673381 7.585028 36.844151 1.050460 3.824516 68.900271 0.499561 3.026041 62.196461 0.000001 -0.000002 -0.000002 -74.174482 56.456745 67.521754 40.309072 -4.960691 0.582932 -9.601944 13.145781 -7.364015 1.471234 -15.866668 2.360770 -0.000000 0.000001 0.000000 -36.246322 -16.665824 -29.742581 37.722097 -6.347958 2.917529 -7.163009 -5.028512 12.055187 3.418290 -0.195486 6.803430 -0.000000 -0.000000 0.000000 
11.902781 80.182816 -18.889416 10.277678 -14.879243 2.800712 10.530098 1.980902 2.139993 5.219757 4.934810 -4.310487 -5.643437 6.263131 -2.019006 15.293613 32.815739 -11.488465 0.050085 35.439376 -10.596005 0.000000 -0.000002 -0.000000 0.032824 16.062706 -12.966104 2.050924 -1.003353 -41.311884 -31.291480 -47.518374 -38.997300 23.980234 -9.370307 -2.972648 -0.931493 -1.601947 -8.831470 0.124239 -0.231510 -5.599147 -3.226258 -1.180510 -8.068096 -0.000003 -0.000001 0.000000 18.185433 -7.353151 11.294513 -2.105301 9.840735 -7.835064 6.683026 10.221703 -0.922736 0.000005 -0.000002 -0.000000 -5.034878 24.263156 1.160073 5.739139 -35.036668 57.587599 -20.688641 45.745171 20.571521 14.795037 16.020813 -1.353438 55.149536 18.649584 -29.698281 -0.442579 -14.180538 7.313140 21.667015 -29.244507 9.142387 0.000000 0.000002 -0.000002 5.673387 7.585026 36.844151 1.050460 3.824514 68.900271 0.499559 3.026044 62.196461 0.000003 0.000001 -0.000003 -79.177773 57.459540 70.145107 40.705066 -5.412014 2.434578 -10.619731 12.617966 -5.070504 0.535570 -16.180453 2.571674 0.000000 0.000000 -0.000000 -37.248689 -16.229006 -29.432965 39.949858 -7.133731 2.583277 -7.509228 -4.149669 8.815432 1.553843 -0.177057 9.727263 0.000000 0.000000 -0.000000 
12.437361 80.110146 -18.494896 10.328642 -13.377441 2.071569 10.547063 2.006848 2.149119 5.235784 4.953143 -4.161407 -5.626536 6.249475 -1.875305 15.894610 32.424950 -11.813298 -0.525899 35.167886 -10.051810 0.000002 -0.000001 0.000001 -0.228553 15.407107 -12.431763 2.102049 -1.130036 -41.736079 -30.596000 -45.532438 -38.302738 23.696312 -7.894424 -3.864854 -1.044330 -2.290039 -7.734598 0.127279 -0.190752 -4.692688 -3.136254 -1.171775 -7.170314 0.000000 -0.000003 0.000001 18.016077 -7.774358 12.019121 -2.409720 9.388384 -7.659116 6.523949 9.939608 -0.903836 0.000003 -0.000001 0.000000 -5.056520 24.242940 1.253825 5.241053 -34.841205 57.458755 -20.410133 45.162259 20.212709 15.419932 15.454010 -2.049695 55.149529 18.649582 -29.698281 -0.442579 -14.180537 7.313136 21.667015 -29.244507 9.142385 -0.000003 0.000000 0.000002 5.673381 7.585025 36.844151 1.050462 3.824513 68.900271 0.499560 3.026043 62.196461 0.000000 -0.000001 0.000001 -83.029255 57.489504 72.665201 41.658929 -6.448710 3.426200 -11.160616 11.904342 -4.225953 0.025453 -16.389546 2.685550 -0.000000 0.000002 -0.000000 -40.202726 -14.221751 -30.475642 44.847394 -5.671175 2.929409 -4.558068 -3.422163 8.070385 0.210267 -0.090408 11.883073 0.000000 0.000002 -0.000000 
12.852833 80.037819 -18.067453 10.334205 -11.666667 1.279601 10.581120 2.012818 2.112436 5.284489 4.963684 -4.033574 -5.578408 6.232349 -1.752533 16.256342 32.029189 -11.764718 -1.049488 34.905313 -9.634602 0.000001 -0.000000 -0.000000 -0.573970 14.571343 -11.680519 2.084616 -1.333840 -42.196953 -29.712901 -43.078724 -37.252675 22.889663 -6.944346 -4.226524 -1.134420 -2.997175 -6.549214 0.129706 -0.151060 -3.813169 -2.996652 -1.147566 -6.306470 0.000002 -0.000001 0.000000 17.849473 -8.199292 12.748803 -2.709224 8.944835 -7.490489 6.361023 9.650116 -0.885248 0.000000 -0.000000 -0.000001 -5.139846 24.297894 1.537786 4.198016 -34.424850 57.010158 -19.982290 44.185877 19.630927 16.151630 15.197946 -2.528130 55.149536 18.649582 -29.698284 -0.442579 -14.180539 7.313138 21.667013 -29.244510 9.142390 -0.000001 0.000002 0.000001 5.673383 7.585027 36.844151 1.050461 3.824518 68.900271 0.499560 3.026041 62.196461 0.000002 -0.000002 -0.000002 -85.216971 57.057983 74.149947 42.646817 -7.666957 3.520915 -12.019846 10.865610 -3.148646 -0.037057 -16.534583 2.722433 0.000000 0.000001 -0.000000 -43.485666 -11.704121 -31.078921 49.666369 -4.128614 3.321600 -0.560375 -2.564103 6.382410 0.099923 0.167352 12.514810 -0.000001 -0.000001 0.000000 
13.141796 79.922241 -17.514198 10.308436 -9.671313 0.472690 10.621446 2.017755 2.054960 5.348111 4.978013 -3.923054 -5.520037 6.221790 -1.651091 16.346620 31.569752 -11.485014 -1.638750 34.593979 -9.184300 -0.000000 -0.000001 -0.000000 -0.902488 13.564975 -10.907749 1.986490 -1.511589 -42.640236 -28.773685 -40.328592 -36.013617 21.772929 -6.260617 -3.971413 -1.198068 -3.692213 -5.328669 0.131439 -0.113916 -2.996724 -2.815878 -1.107664 -5.512022 0.000001 -0.000004 0.000001 17.692411 -8.609449 13.452414 -2.991564 8.528642 -7.335851 6.201201 9.365791 -0.867852 -0.000004 -0.000001 0.000000 -5.253099 24.340952 1.891682 3.028720 -33.852040 56.441545 -19.601555 43.162411 19.047712 16.837359 15.190590 -2.737150 55.149533 18.649586 -29.698281 -0.442579 -14.180539 7.313142 21.667016 -29.244507 9.142383 -0.000003 0.000004 -0.000002 5.673379 7.585024 36.844151 1.050460 3.824514 68.900271 0.499564 3.026040 62.196468 -0.000001 0.000001 0.000001 -85.744754 56.321135 74.075929 43.643041 -8.601795 3.526476 -12.781330 10.053690 -2.348523 -0.028367 -16.692243 2.779777 -0.000000 -0.000001 -0.000000 -46.392673 -8.468023 -30.696690 52.763785 -2.589476 3.371152 4.231739 -1.839073 4.752330 -3.089335 -0.889642 14.614424 0.000001 0.000001 0.000000 
